<svg width="346" height="140" viewBox="0 0 346 140" fill="none" xmlns="http://www.w3.org/2000/svg">
<rect width="346" height="140" fill="white"/>
<circle cx="223.5" cy="87.5" r="2.5" fill="#F7941E"/>
<circle cx="158.5" cy="87.5" r="2.5" fill="#F7941E"/>
<path d="M108.915 81.8182H110.148V88.5597C110.148 89.2557 109.984 89.8771 109.656 90.424C109.331 90.9676 108.872 91.3968 108.278 91.7116C107.685 92.0232 106.989 92.179 106.19 92.179C105.392 92.179 104.696 92.0232 104.102 91.7116C103.509 91.3968 103.048 90.9676 102.72 90.424C102.395 89.8771 102.233 89.2557 102.233 88.5597V81.8182H103.466V88.4602C103.466 88.9574 103.575 89.3999 103.794 89.7876C104.013 90.1721 104.324 90.4754 104.729 90.6974C105.136 90.9162 105.624 91.0256 106.19 91.0256C106.757 91.0256 107.244 90.9162 107.652 90.6974C108.06 90.4754 108.371 90.1721 108.587 89.7876C108.805 89.3999 108.915 88.9574 108.915 88.4602V81.8182ZM113.624 87.4062V92H112.451V84.3636H113.584V85.5568H113.684C113.863 85.169 114.135 84.8575 114.499 84.6222C114.864 84.3835 115.334 84.2642 115.911 84.2642C116.428 84.2642 116.881 84.3703 117.268 84.5824C117.656 84.7912 117.958 85.1094 118.173 85.5369C118.389 85.9612 118.496 86.4981 118.496 87.1477V92H117.323V87.2273C117.323 86.6274 117.167 86.16 116.856 85.8253C116.544 85.4872 116.117 85.3182 115.573 85.3182C115.198 85.3182 114.864 85.3994 114.569 85.5618C114.277 85.7242 114.047 85.9612 113.878 86.2727C113.709 86.5843 113.624 86.9621 113.624 87.4062ZM121.814 81.8182V92H120.64V81.8182H121.814ZM127.164 92.1591C126.428 92.1591 125.794 91.9967 125.26 91.6719C124.73 91.3438 124.32 90.8864 124.032 90.2997C123.747 89.7098 123.605 89.0237 123.605 88.2415C123.605 87.4593 123.747 86.7699 124.032 86.1733C124.32 85.5734 124.722 85.1061 125.235 84.7713C125.752 84.4332 126.356 84.2642 127.045 84.2642C127.443 84.2642 127.835 84.3305 128.223 84.4631C128.611 84.5956 128.964 84.8111 129.282 85.1094C129.6 85.4044 129.854 85.7955 130.043 86.2827C130.232 86.7699 130.326 87.3698 130.326 88.0824V88.5795H124.44V87.5653H129.133C129.133 87.1345 129.047 86.75 128.874 86.4119C128.705 86.0739 128.463 85.8071 128.149 85.6115C127.837 85.416 127.469 85.3182 127.045 85.3182C126.578 85.3182 126.173 85.4342 125.832 85.6662C125.494 85.8949 125.234 86.1932 125.051 86.5611C124.869 86.929 124.778 87.3234 124.778 87.7443V88.4205C124.778 88.9972 124.877 89.486 125.076 89.8871C125.278 90.2848 125.558 90.5881 125.916 90.7969C126.274 91.0024 126.69 91.1051 127.164 91.1051C127.472 91.1051 127.751 91.062 127.999 90.9759C128.251 90.8864 128.468 90.7538 128.651 90.5781C128.833 90.3991 128.974 90.1771 129.073 89.9119L130.207 90.2301C130.088 90.6146 129.887 90.9527 129.605 91.2443C129.324 91.5327 128.976 91.758 128.561 91.9205C128.147 92.0795 127.681 92.1591 127.164 92.1591ZM134.358 92.179C133.874 92.179 133.435 92.0878 133.041 91.9055C132.646 91.7199 132.333 91.4531 132.101 91.1051C131.869 90.7538 131.753 90.3295 131.753 89.8324C131.753 89.3949 131.839 89.0402 132.012 88.7685C132.184 88.4934 132.414 88.2779 132.703 88.1222C132.991 87.9664 133.309 87.8504 133.657 87.7741C134.008 87.6946 134.361 87.6316 134.716 87.5852C135.18 87.5256 135.556 87.4808 135.845 87.451C136.136 87.4179 136.348 87.3632 136.481 87.2869C136.617 87.2107 136.685 87.0781 136.685 86.8892V86.8494C136.685 86.3589 136.551 85.9777 136.282 85.706C136.017 85.4342 135.614 85.2983 135.074 85.2983C134.514 85.2983 134.075 85.4209 133.757 85.6662C133.438 85.9115 133.215 86.1733 133.085 86.4517L131.972 86.054C132.171 85.59 132.436 85.2287 132.767 84.9702C133.102 84.7083 133.467 84.526 133.861 84.4233C134.259 84.3172 134.65 84.2642 135.034 84.2642C135.28 84.2642 135.561 84.294 135.879 84.3537C136.201 84.41 136.511 84.5277 136.809 84.7067C137.111 84.8857 137.361 85.1558 137.56 85.517C137.759 85.8783 137.858 86.3622 137.858 86.9688V92H136.685V90.9659H136.625C136.546 91.1316 136.413 91.3089 136.227 91.4979C136.042 91.6868 135.795 91.8475 135.487 91.9801C135.178 92.1127 134.802 92.179 134.358 92.179ZM134.537 91.125C135.001 91.125 135.392 91.0339 135.71 90.8516C136.032 90.6693 136.274 90.4339 136.436 90.1456C136.602 89.8572 136.685 89.554 136.685 89.2358V88.1619C136.635 88.2216 136.526 88.2763 136.357 88.326C136.191 88.3724 135.999 88.4138 135.78 88.4503C135.565 88.4834 135.354 88.5133 135.149 88.5398C134.946 88.563 134.782 88.5829 134.656 88.5994C134.352 88.6392 134.066 88.7038 133.801 88.7933C133.539 88.8795 133.327 89.0104 133.165 89.1861C133.006 89.3584 132.926 89.5937 132.926 89.892C132.926 90.2997 133.077 90.608 133.379 90.8168C133.684 91.0223 134.07 91.125 134.537 91.125ZM145.409 86.0739L144.355 86.3722C144.288 86.1965 144.191 86.0258 144.061 85.8601C143.935 85.6911 143.763 85.5518 143.544 85.4425C143.326 85.3331 143.046 85.2784 142.704 85.2784C142.237 85.2784 141.847 85.3861 141.536 85.6016C141.228 85.8137 141.074 86.0838 141.074 86.4119C141.074 86.7036 141.18 86.9339 141.392 87.103C141.604 87.272 141.935 87.4129 142.386 87.5256L143.52 87.804C144.202 87.9697 144.711 88.2232 145.046 88.5646C145.381 88.9027 145.548 89.3385 145.548 89.8722C145.548 90.3097 145.422 90.7008 145.17 91.0455C144.922 91.3902 144.574 91.6619 144.126 91.8608C143.679 92.0597 143.158 92.1591 142.565 92.1591C141.786 92.1591 141.141 91.9901 140.631 91.652C140.121 91.3139 139.797 90.8201 139.662 90.1705L140.775 89.892C140.881 90.303 141.082 90.6113 141.377 90.8168C141.675 91.0223 142.065 91.125 142.545 91.125C143.092 91.125 143.526 91.009 143.848 90.777C144.172 90.5417 144.335 90.2599 144.335 89.9318C144.335 89.6667 144.242 89.4446 144.056 89.2656C143.871 89.0833 143.586 88.9474 143.201 88.858L141.929 88.5597C141.229 88.3939 140.716 88.1371 140.387 87.7891C140.063 87.4377 139.9 86.9986 139.9 86.4716C139.9 86.0407 140.021 85.6596 140.263 85.3281C140.508 84.9967 140.842 84.7365 141.262 84.5476C141.687 84.3587 142.167 84.2642 142.704 84.2642C143.46 84.2642 144.053 84.4299 144.484 84.7614C144.918 85.0928 145.226 85.5303 145.409 86.0739ZM148.487 87.4062V92H147.314V81.8182H148.487V85.5568H148.587C148.766 85.1624 149.034 84.8492 149.392 84.6172C149.753 84.3819 150.234 84.2642 150.834 84.2642C151.354 84.2642 151.81 84.3686 152.201 84.5774C152.592 84.7829 152.896 85.0994 153.111 85.527C153.33 85.9512 153.439 86.4915 153.439 87.1477V92H152.266V87.2273C152.266 86.6207 152.108 86.1518 151.794 85.8203C151.482 85.4856 151.049 85.3182 150.496 85.3182C150.111 85.3182 149.767 85.3994 149.462 85.5618C149.16 85.7242 148.922 85.9612 148.746 86.2727C148.574 86.5843 148.487 86.9621 148.487 87.4062ZM166.762 92H163.62V81.8182H166.901C167.889 81.8182 168.734 82.022 169.436 82.4297C170.139 82.834 170.678 83.4157 171.052 84.1747C171.427 84.9304 171.614 85.8352 171.614 86.8892C171.614 87.9498 171.425 88.8629 171.047 89.6286C170.669 90.3909 170.119 90.9775 169.397 91.3885C168.674 91.7962 167.796 92 166.762 92ZM164.853 90.9062H166.682C167.524 90.9062 168.222 90.7438 168.775 90.419C169.329 90.0942 169.741 89.6319 170.013 89.032C170.285 88.4321 170.421 87.7178 170.421 86.8892C170.421 86.0672 170.287 85.3596 170.018 84.7663C169.75 84.1697 169.349 83.7124 168.815 83.3942C168.281 83.0727 167.617 82.9119 166.821 82.9119H164.853V90.9062ZM173.523 92V84.3636H174.696V92H173.523ZM174.12 83.0909C173.891 83.0909 173.694 83.013 173.528 82.8572C173.366 82.7015 173.284 82.5142 173.284 82.2955C173.284 82.0767 173.366 81.8894 173.528 81.7337C173.694 81.5779 173.891 81.5 174.12 81.5C174.348 81.5 174.544 81.5779 174.706 81.7337C174.872 81.8894 174.955 82.0767 174.955 82.2955C174.955 82.5142 174.872 82.7015 174.706 82.8572C174.544 83.013 174.348 83.0909 174.12 83.0909ZM182.254 86.0739L181.2 86.3722C181.134 86.1965 181.036 86.0258 180.907 85.8601C180.781 85.6911 180.609 85.5518 180.39 85.4425C180.171 85.3331 179.891 85.2784 179.55 85.2784C179.083 85.2784 178.693 85.3861 178.382 85.6016C178.073 85.8137 177.919 86.0838 177.919 86.4119C177.919 86.7036 178.025 86.9339 178.237 87.103C178.45 87.272 178.781 87.4129 179.232 87.5256L180.365 87.804C181.048 87.9697 181.557 88.2232 181.892 88.5646C182.226 88.9027 182.394 89.3385 182.394 89.8722C182.394 90.3097 182.268 90.7008 182.016 91.0455C181.767 91.3902 181.419 91.6619 180.972 91.8608C180.524 92.0597 180.004 92.1591 179.411 92.1591C178.632 92.1591 177.987 91.9901 177.477 91.652C176.966 91.3139 176.643 90.8201 176.507 90.1705L177.621 89.892C177.727 90.303 177.927 90.6113 178.222 90.8168C178.521 91.0223 178.91 91.125 179.391 91.125C179.938 91.125 180.372 91.009 180.693 90.777C181.018 90.5417 181.181 90.2599 181.181 89.9318C181.181 89.6667 181.088 89.4446 180.902 89.2656C180.717 89.0833 180.432 88.9474 180.047 88.858L178.774 88.5597C178.075 88.3939 177.561 88.1371 177.233 87.7891C176.908 87.4377 176.746 86.9986 176.746 86.4716C176.746 86.0407 176.867 85.6596 177.109 85.3281C177.354 84.9967 177.687 84.7365 178.108 84.5476C178.532 84.3587 179.013 84.2642 179.55 84.2642C180.306 84.2642 180.899 84.4299 181.33 84.7614C181.764 85.0928 182.072 85.5303 182.254 86.0739ZM187.262 92.1591C186.546 92.1591 185.93 91.9901 185.413 91.652C184.896 91.3139 184.498 90.8482 184.219 90.255C183.941 89.6617 183.802 88.9839 183.802 88.2216C183.802 87.446 183.944 86.7616 184.229 86.1683C184.518 85.5717 184.919 85.1061 185.433 84.7713C185.95 84.4332 186.553 84.2642 187.242 84.2642C187.779 84.2642 188.263 84.3636 188.694 84.5625C189.125 84.7614 189.478 85.0398 189.753 85.3977C190.028 85.7557 190.199 86.1733 190.265 86.6506H189.092C189.002 86.3026 188.803 85.9943 188.495 85.7259C188.19 85.4541 187.779 85.3182 187.262 85.3182C186.805 85.3182 186.404 85.4375 186.059 85.6761C185.718 85.9115 185.451 86.2446 185.259 86.6754C185.07 87.103 184.975 87.6051 184.975 88.1818C184.975 88.7718 185.068 89.2855 185.254 89.723C185.442 90.1605 185.708 90.5002 186.049 90.7422C186.394 90.9841 186.798 91.1051 187.262 91.1051C187.567 91.1051 187.844 91.0521 188.092 90.946C188.341 90.84 188.551 90.6875 188.724 90.4886C188.896 90.2898 189.019 90.0511 189.092 89.7727H190.265C190.199 90.2235 190.035 90.6295 189.773 90.9908C189.514 91.3487 189.171 91.6338 188.744 91.8459C188.319 92.0547 187.826 92.1591 187.262 92.1591ZM195.082 92.1591C194.393 92.1591 193.788 91.995 193.268 91.6669C192.751 91.3388 192.346 90.8797 192.055 90.2898C191.766 89.6998 191.622 89.0104 191.622 88.2216C191.622 87.4261 191.766 86.7318 192.055 86.1385C192.346 85.5452 192.751 85.0845 193.268 84.7564C193.788 84.4283 194.393 84.2642 195.082 84.2642C195.772 84.2642 196.375 84.4283 196.892 84.7564C197.412 85.0845 197.817 85.5452 198.105 86.1385C198.397 86.7318 198.543 87.4261 198.543 88.2216C198.543 89.0104 198.397 89.6998 198.105 90.2898C197.817 90.8797 197.412 91.3388 196.892 91.6669C196.375 91.995 195.772 92.1591 195.082 92.1591ZM195.082 91.1051C195.606 91.1051 196.037 90.9709 196.375 90.7024C196.713 90.4339 196.963 90.081 197.126 89.6435C197.288 89.206 197.369 88.732 197.369 88.2216C197.369 87.7112 197.288 87.2356 197.126 86.7947C196.963 86.3539 196.713 85.9976 196.375 85.7259C196.037 85.4541 195.606 85.3182 195.082 85.3182C194.559 85.3182 194.128 85.4541 193.79 85.7259C193.452 85.9976 193.201 86.3539 193.039 86.7947C192.877 87.2356 192.795 87.7112 192.795 88.2216C192.795 88.732 192.877 89.206 193.039 89.6435C193.201 90.081 193.452 90.4339 193.79 90.7024C194.128 90.9709 194.559 91.1051 195.082 91.1051ZM206.305 84.3636L203.481 92H202.287L199.464 84.3636H200.736L202.844 90.4489H202.924L205.032 84.3636H206.305ZM210.781 92.1591C210.046 92.1591 209.411 91.9967 208.877 91.6719C208.347 91.3438 207.938 90.8864 207.649 90.2997C207.364 89.7098 207.222 89.0237 207.222 88.2415C207.222 87.4593 207.364 86.7699 207.649 86.1733C207.938 85.5734 208.339 85.1061 208.852 84.7713C209.369 84.4332 209.973 84.2642 210.662 84.2642C211.06 84.2642 211.453 84.3305 211.84 84.4631C212.228 84.5956 212.581 84.8111 212.899 85.1094C213.218 85.4044 213.471 85.7955 213.66 86.2827C213.849 86.7699 213.943 87.3698 213.943 88.0824V88.5795H208.057V87.5653H212.75C212.75 87.1345 212.664 86.75 212.492 86.4119C212.323 86.0739 212.081 85.8071 211.766 85.6115C211.454 85.416 211.086 85.3182 210.662 85.3182C210.195 85.3182 209.79 85.4342 209.449 85.6662C209.111 85.8949 208.851 86.1932 208.669 86.5611C208.486 86.929 208.395 87.3234 208.395 87.7443V88.4205C208.395 88.9972 208.494 89.486 208.693 89.8871C208.896 90.2848 209.176 90.5881 209.534 90.7969C209.892 91.0024 210.307 91.1051 210.781 91.1051C211.09 91.1051 211.368 91.062 211.617 90.9759C211.869 90.8864 212.086 90.7538 212.268 90.5781C212.45 90.3991 212.591 90.1771 212.691 89.9119L213.824 90.2301C213.705 90.6146 213.504 90.9527 213.222 91.2443C212.941 91.5327 212.593 91.758 212.178 91.9205C211.764 92.0795 211.298 92.1591 210.781 92.1591ZM215.728 92V84.3636H216.862V85.517H216.941C217.08 85.1392 217.332 84.8326 217.697 84.5973C218.061 84.362 218.472 84.2443 218.93 84.2443C219.016 84.2443 219.124 84.246 219.253 84.2493C219.382 84.2526 219.48 84.2576 219.546 84.2642V85.4574C219.507 85.4474 219.415 85.4325 219.273 85.4126C219.134 85.3894 218.986 85.3778 218.83 85.3778C218.459 85.3778 218.128 85.4557 217.836 85.6115C217.548 85.764 217.319 85.9761 217.15 86.2479C216.984 86.5163 216.901 86.8229 216.901 87.1676V92H215.728ZM237.045 81.8182V92H235.852L230.304 84.0057H230.204V92H228.971V81.8182H230.164L235.733 89.8324H235.832V81.8182H237.045ZM241.6 92.179C241.116 92.179 240.677 92.0878 240.283 91.9055C239.888 91.7199 239.575 91.4531 239.343 91.1051C239.111 90.7538 238.995 90.3295 238.995 89.8324C238.995 89.3949 239.081 89.0402 239.254 88.7685C239.426 88.4934 239.656 88.2779 239.945 88.1222C240.233 87.9664 240.551 87.8504 240.899 87.7741C241.251 87.6946 241.604 87.6316 241.958 87.5852C242.422 87.5256 242.798 87.4808 243.087 87.451C243.378 87.4179 243.591 87.3632 243.723 87.2869C243.859 87.2107 243.927 87.0781 243.927 86.8892V86.8494C243.927 86.3589 243.793 85.9777 243.524 85.706C243.259 85.4342 242.856 85.2983 242.316 85.2983C241.756 85.2983 241.317 85.4209 240.999 85.6662C240.681 85.9115 240.457 86.1733 240.328 86.4517L239.214 86.054C239.413 85.59 239.678 85.2287 240.009 84.9702C240.344 84.7083 240.709 84.526 241.103 84.4233C241.501 84.3172 241.892 84.2642 242.276 84.2642C242.522 84.2642 242.803 84.294 243.122 84.3537C243.443 84.41 243.753 84.5277 244.051 84.7067C244.353 84.8857 244.603 85.1558 244.802 85.517C245.001 85.8783 245.1 86.3622 245.1 86.9688V92H243.927V90.9659H243.867C243.788 91.1316 243.655 91.3089 243.47 91.4979C243.284 91.6868 243.037 91.8475 242.729 91.9801C242.421 92.1127 242.044 92.179 241.6 92.179ZM241.779 91.125C242.243 91.125 242.634 91.0339 242.953 90.8516C243.274 90.6693 243.516 90.4339 243.678 90.1456C243.844 89.8572 243.927 89.554 243.927 89.2358V88.1619C243.877 88.2216 243.768 88.2763 243.599 88.326C243.433 88.3724 243.241 88.4138 243.022 88.4503C242.807 88.4834 242.596 88.5133 242.391 88.5398C242.189 88.563 242.025 88.5829 241.899 88.5994C241.594 88.6392 241.309 88.7038 241.044 88.7933C240.782 88.8795 240.57 89.0104 240.407 89.1861C240.248 89.3584 240.169 89.5937 240.169 89.892C240.169 90.2997 240.319 90.608 240.621 90.8168C240.926 91.0223 241.312 91.125 241.779 91.125ZM250.563 84.3636V85.358H246.605V84.3636H250.563ZM247.759 82.5341H248.932V89.8125C248.932 90.1439 248.98 90.3925 249.076 90.5582C249.176 90.7206 249.302 90.83 249.454 90.8864C249.61 90.9394 249.774 90.9659 249.946 90.9659C250.076 90.9659 250.182 90.9593 250.265 90.946C250.347 90.9295 250.414 90.9162 250.463 90.9062L250.702 91.9602C250.623 91.9901 250.511 92.0199 250.369 92.0497C250.226 92.0829 250.046 92.0994 249.827 92.0994C249.496 92.0994 249.171 92.0282 248.853 91.8857C248.538 91.7431 248.276 91.526 248.067 91.2344C247.862 90.9427 247.759 90.5748 247.759 90.1307V82.5341ZM257.14 88.8778V84.3636H258.314V92H257.14V90.7074H257.061C256.882 91.0952 256.603 91.425 256.225 91.6967C255.848 91.9652 255.37 92.0994 254.794 92.0994C254.316 92.0994 253.892 91.995 253.521 91.7862C253.15 91.5741 252.858 91.2559 252.646 90.8317C252.434 90.4041 252.328 89.8655 252.328 89.2159V84.3636H253.501V89.1364C253.501 89.6932 253.657 90.1373 253.968 90.4688C254.283 90.8002 254.684 90.9659 255.172 90.9659C255.463 90.9659 255.76 90.8913 256.061 90.7422C256.366 90.593 256.622 90.3643 256.827 90.0561C257.036 89.7479 257.14 89.3551 257.14 88.8778ZM260.463 92V84.3636H261.596V85.517H261.676C261.815 85.1392 262.067 84.8326 262.431 84.5973C262.796 84.362 263.207 84.2443 263.664 84.2443C263.75 84.2443 263.858 84.246 263.987 84.2493C264.117 84.2526 264.214 84.2576 264.281 84.2642V85.4574C264.241 85.4474 264.15 85.4325 264.007 85.4126C263.868 85.3894 263.721 85.3778 263.565 85.3778C263.194 85.3778 262.862 85.4557 262.57 85.6115C262.282 85.764 262.053 85.9761 261.884 86.2479C261.719 86.5163 261.636 86.8229 261.636 87.1676V92H260.463ZM268.641 92.1591C267.905 92.1591 267.27 91.9967 266.737 91.6719C266.206 91.3438 265.797 90.8864 265.509 90.2997C265.224 89.7098 265.081 89.0237 265.081 88.2415C265.081 87.4593 265.224 86.7699 265.509 86.1733C265.797 85.5734 266.198 85.1061 266.712 84.7713C267.229 84.4332 267.832 84.2642 268.521 84.2642C268.919 84.2642 269.312 84.3305 269.7 84.4631C270.088 84.5956 270.441 84.8111 270.759 85.1094C271.077 85.4044 271.33 85.7955 271.519 86.2827C271.708 86.7699 271.803 87.3698 271.803 88.0824V88.5795H265.916V87.5653H270.61C270.61 87.1345 270.523 86.75 270.351 86.4119C270.182 86.0739 269.94 85.8071 269.625 85.6115C269.314 85.416 268.946 85.3182 268.521 85.3182C268.054 85.3182 267.65 85.4342 267.308 85.6662C266.97 85.8949 266.71 86.1932 266.528 86.5611C266.346 86.929 266.254 87.3234 266.254 87.7443V88.4205C266.254 88.9972 266.354 89.486 266.553 89.8871C266.755 90.2848 267.035 90.5881 267.393 90.7969C267.751 91.0024 268.167 91.1051 268.641 91.1051C268.949 91.1051 269.227 91.062 269.476 90.9759C269.728 90.8864 269.945 90.7538 270.127 90.5781C270.31 90.3991 270.45 90.1771 270.55 89.9119L271.683 90.2301C271.564 90.6146 271.364 90.9527 271.082 91.2443C270.8 91.5327 270.452 91.758 270.038 91.9205C269.624 92.0795 269.158 92.1591 268.641 92.1591Z" fill="black"/>
<path d="M114.732 54.4567C114.647 53.5973 114.281 52.9297 113.635 52.4538C112.989 51.978 112.112 51.7401 111.004 51.7401C110.251 51.7401 109.615 51.8466 109.097 52.0597C108.578 52.2656 108.18 52.5533 107.903 52.9226C107.634 53.2919 107.499 53.7109 107.499 54.1797C107.484 54.5703 107.566 54.9112 107.744 55.2024C107.928 55.4936 108.18 55.7457 108.5 55.9588C108.82 56.1648 109.189 56.3459 109.608 56.5021C110.027 56.6513 110.474 56.7791 110.95 56.8857L112.911 57.3544C113.862 57.5675 114.736 57.8516 115.531 58.2067C116.327 58.5618 117.016 58.9986 117.598 59.517C118.18 60.0355 118.631 60.6463 118.951 61.3494C119.278 62.0526 119.445 62.8587 119.452 63.7678C119.445 65.103 119.104 66.2607 118.429 67.2408C117.761 68.2138 116.795 68.9702 115.531 69.5099C114.274 70.0426 112.758 70.3089 110.982 70.3089C109.221 70.3089 107.687 70.0391 106.38 69.4993C105.08 68.9595 104.065 68.1605 103.333 67.1023C102.609 66.0369 102.229 64.7195 102.193 63.1499H106.657C106.707 63.8814 106.916 64.4922 107.286 64.9822C107.662 65.4652 108.163 65.831 108.788 66.0795C109.42 66.321 110.134 66.4418 110.929 66.4418C111.71 66.4418 112.388 66.3281 112.964 66.1009C113.546 65.8736 113.997 65.5575 114.317 65.1527C114.636 64.7479 114.796 64.2827 114.796 63.7571C114.796 63.267 114.651 62.8551 114.359 62.5213C114.075 62.1875 113.656 61.9034 113.102 61.669C112.555 61.4347 111.884 61.2216 111.089 61.0298L108.713 60.4332C106.874 59.9858 105.421 59.2862 104.356 58.3345C103.29 57.3828 102.761 56.1009 102.768 54.4886C102.761 53.1676 103.113 52.0135 103.823 51.0263C104.54 50.0391 105.524 49.2685 106.774 48.7145C108.024 48.1605 109.445 47.8835 111.036 47.8835C112.655 47.8835 114.068 48.1605 115.276 48.7145C116.49 49.2685 117.435 50.0391 118.109 51.0263C118.784 52.0135 119.132 53.157 119.153 54.4567H114.732ZM142.604 59.0909C142.604 61.4702 142.153 63.4943 141.251 65.1634C140.356 66.8324 139.135 68.1072 137.586 68.9879C136.045 69.8615 134.312 70.2983 132.388 70.2983C130.449 70.2983 128.709 69.858 127.167 68.9773C125.626 68.0966 124.408 66.8217 123.513 65.1527C122.618 63.4837 122.171 61.4631 122.171 59.0909C122.171 56.7116 122.618 54.6875 123.513 53.0185C124.408 51.3494 125.626 50.0781 127.167 49.2045C128.709 48.3239 130.449 47.8835 132.388 47.8835C134.312 47.8835 136.045 48.3239 137.586 49.2045C139.135 50.0781 140.356 51.3494 141.251 53.0185C142.153 54.6875 142.604 56.7116 142.604 59.0909ZM137.927 59.0909C137.927 57.5497 137.697 56.25 137.235 55.1918C136.78 54.1335 136.138 53.331 135.307 52.7841C134.476 52.2372 133.503 51.9638 132.388 51.9638C131.273 51.9638 130.3 52.2372 129.469 52.7841C128.638 53.331 127.991 54.1335 127.53 55.1918C127.075 56.25 126.848 57.5497 126.848 59.0909C126.848 60.6321 127.075 61.9318 127.53 62.9901C127.991 64.0483 128.638 64.8509 129.469 65.3977C130.3 65.9446 131.273 66.218 132.388 66.218C133.503 66.218 134.476 65.9446 135.307 65.3977C136.138 64.8509 136.78 64.0483 137.235 62.9901C137.697 61.9318 137.927 60.6321 137.927 59.0909ZM146.021 48.1818H151.71L157.719 62.8409H157.974L163.983 48.1818H169.672V70H165.197V55.799H165.016L159.37 69.8935H156.323L150.677 55.7457H150.496V70H146.021V48.1818ZM173.472 70V48.1818H178.085V57.8018H178.373L186.225 48.1818H191.754L183.657 57.951L191.85 70H186.331L180.355 61.0298L178.085 63.7997V70H173.472ZM212.975 59.0909C212.975 61.4702 212.524 63.4943 211.622 65.1634C210.727 66.8324 209.506 68.1072 207.958 68.9879C206.416 69.8615 204.683 70.2983 202.759 70.2983C200.82 70.2983 199.08 69.858 197.539 68.9773C195.997 68.0966 194.779 66.8217 193.884 65.1527C192.99 63.4837 192.542 61.4631 192.542 59.0909C192.542 56.7116 192.99 54.6875 193.884 53.0185C194.779 51.3494 195.997 50.0781 197.539 49.2045C199.08 48.3239 200.82 47.8835 202.759 47.8835C204.683 47.8835 206.416 48.3239 207.958 49.2045C209.506 50.0781 210.727 51.3494 211.622 53.0185C212.524 54.6875 212.975 56.7116 212.975 59.0909ZM208.298 59.0909C208.298 57.5497 208.068 56.25 207.606 55.1918C207.151 54.1335 206.509 53.331 205.678 52.7841C204.847 52.2372 203.874 51.9638 202.759 51.9638C201.644 51.9638 200.671 52.2372 199.84 52.7841C199.009 53.331 198.362 54.1335 197.901 55.1918C197.446 56.25 197.219 57.5497 197.219 59.0909C197.219 60.6321 197.446 61.9318 197.901 62.9901C198.362 64.0483 199.009 64.8509 199.84 65.3977C200.671 65.9446 201.644 66.218 202.759 66.218C203.874 66.218 204.847 65.9446 205.678 65.3977C206.509 64.8509 207.151 64.0483 207.606 62.9901C208.068 61.9318 208.298 60.6321 208.298 59.0909ZM224.127 70H216.392V48.1818H224.191C226.385 48.1818 228.275 48.6186 229.858 49.4922C231.442 50.3587 232.66 51.6051 233.512 53.2315C234.372 54.858 234.801 56.804 234.801 59.0696C234.801 61.3423 234.372 63.2955 233.512 64.929C232.66 66.5625 231.435 67.8161 229.837 68.6896C228.246 69.5632 226.343 70 224.127 70ZM221.005 66.0476H223.935C225.299 66.0476 226.446 65.8061 227.376 65.3232C228.314 64.8331 229.017 64.0767 229.485 63.054C229.961 62.0241 230.199 60.696 230.199 59.0696C230.199 57.4574 229.961 56.1399 229.485 55.1172C229.017 54.0945 228.317 53.3416 227.387 52.8587C226.456 52.3757 225.309 52.1342 223.946 52.1342H221.005V66.0476ZM238.219 70V48.1818H252.92V51.9851H242.831V57.1839H252.164V60.9872H242.831V66.1967H252.963V70H238.219ZM256.588 70V48.1818H265.196C266.843 48.1818 268.25 48.4766 269.414 49.0661C270.586 49.6484 271.478 50.4759 272.088 51.5483C272.706 52.6136 273.015 53.8672 273.015 55.3089C273.015 56.7578 272.703 58.0043 272.078 59.0483C271.453 60.0852 270.547 60.8807 269.361 61.4347C268.182 61.9886 266.755 62.2656 265.078 62.2656H259.315V58.5582H264.333C265.213 58.5582 265.945 58.4375 266.527 58.196C267.11 57.9545 267.543 57.5923 267.827 57.1094C268.118 56.6264 268.264 56.0263 268.264 55.3089C268.264 54.5845 268.118 53.9737 267.827 53.4766C267.543 52.9794 267.106 52.603 266.517 52.3473C265.934 52.0845 265.199 51.9531 264.311 51.9531H261.201V70H256.588ZM268.37 60.071L273.793 70H268.701L263.395 60.071H268.37Z" fill="#F7941E"/>
<path d="M67.5211 80.9266C68.5827 80.6368 69.2196 79.5356 68.9301 78.473C68.8336 78.1252 68.6599 77.8354 68.409 77.5842C67.9071 77.0819 67.1544 76.8887 66.4789 77.0626C65.4173 77.3524 64.7804 78.4536 65.0699 79.5162C65.1664 79.864 65.3401 80.1538 65.591 80.405C66.0929 80.9266 66.8456 81.1198 67.5211 80.9266Z" fill="#F7941E"/>
<path d="M34.8636 64.6757C34.8138 64.5428 34.7806 64.4265 34.7473 64.2936C34.0826 61.8015 35.5616 59.2431 38.0542 58.5785C39.6661 58.1466 41.3943 58.6117 42.5741 59.7913C43.1557 60.3728 43.5711 61.0872 43.7872 61.8846C44.4519 64.3766 42.9729 66.9351 40.4803 67.5997C39.5497 67.8489 38.5693 67.7991 37.6886 67.4834L21.0048 84.1302C22.7496 87.536 25.0262 90.6427 27.7016 93.3175L54.8543 66.1709C54.8045 66.038 54.7712 65.9217 54.738 65.7888C54.0733 63.2968 55.5522 60.7383 58.0448 60.0737C59.6567 59.6418 61.3849 60.107 62.5648 61.2865C63.1464 61.868 63.5618 62.5824 63.7778 63.3798C64.4425 65.8719 62.9636 68.4304 60.471 69.0949C59.5404 69.3441 58.56 69.2943 57.6793 68.9786L30.6428 95.9591C33.6672 98.3846 37.0738 100.345 40.7794 101.724L62.6146 79.8937C62.5648 79.7608 62.5315 79.6445 62.4983 79.5116C61.8336 77.0196 63.3125 74.4611 65.8051 73.7966C67.417 73.3646 69.1452 73.8298 70.3251 75.0093C70.9067 75.5908 71.3221 76.3052 71.5381 77.1027C72.2028 79.5947 70.7239 82.1532 68.2313 82.8177C67.3007 83.0669 66.3203 83.0171 65.4396 82.7014L45.0667 103.02C47.7753 103.668 50.351 104 53.5083 104C62.7974 104 69.544 99.7137 74.3298 94.5635C76.9554 91.7392 79.0159 88.4165 80.3453 84.8612C81.6747 81.3059 82.2895 77.5014 82.14 73.7467C82.0071 69.992 81.143 66.3038 79.5975 62.9479C78.0521 59.5919 75.8586 56.5517 73.1832 54.0762C70.5078 51.5842 67.3672 49.657 63.9938 48.411C62.3155 47.7797 60.5707 47.3311 58.8092 47.0487C57.9285 46.9158 57.0478 46.8161 56.1505 46.7663C56.1338 46.7663 56.1172 46.7663 56.1006 46.7663V49.9893L46.1967 43.4768L56.1006 36.0007V38.9579C56.3665 38.9911 56.6324 39.0077 56.8982 39.041C58.0282 39.1905 59.1582 39.3899 60.2716 39.6391C62.4983 40.1541 64.6585 40.8685 66.7191 41.7988C70.8568 43.6595 74.5791 46.3177 77.6367 49.574C80.6943 52.8302 83.1038 56.668 84.6658 60.8047C86.2445 64.9415 86.959 69.3607 86.8261 73.7135C86.6931 78.0662 85.6961 82.3858 83.918 86.3232C83.1038 88.1341 82.1234 89.8619 80.9934 91.49C86.5934 85.0772 90 76.6707 90 67.4834C90.0166 47.3311 73.6818 31 53.5083 31C33.3349 31 17 47.3311 17 67.5C17 71.9857 17.8143 76.2886 19.2932 80.2592L34.8636 64.6757Z" fill="#F7941E"/>
<path d="M59.5211 66.9266C60.5827 66.6368 61.2196 65.5355 60.9301 64.4729C60.8336 64.1252 60.6599 63.8354 60.409 63.5842C59.9071 63.0819 59.1544 62.8887 58.4789 63.0626C57.4173 63.3524 56.7804 64.4536 57.0699 65.5162C57.1664 65.864 57.3401 66.1538 57.591 66.405C58.0929 66.9266 58.8263 67.1198 59.5211 66.9266Z" fill="#F7941E"/>
<path d="M40.5211 64.9293C41.5827 64.6393 42.2196 63.5373 41.9301 62.4739C41.8336 62.1259 41.6599 61.8359 41.409 61.5846C40.9071 61.0819 40.1544 60.8886 39.4789 61.0626C38.4173 61.3526 37.7804 62.4546 38.0699 63.518C38.1664 63.866 38.3401 64.156 38.591 64.4073C39.0929 64.91 39.8456 65.1226 40.5211 64.9293Z" fill="#F7941E"/>
</svg>
