<svg width="336" height="336" viewBox="0 0 336 336" fill="none" xmlns="http://www.w3.org/2000/svg">
<path d="M90.4857 179.699C91.3774 179.455 91.9124 178.53 91.6692 177.637C91.5881 177.345 91.4422 177.102 91.2315 176.891C90.8099 176.469 90.1776 176.307 89.6102 176.453C88.7185 176.696 88.1834 177.621 88.4266 178.514C88.5077 178.806 88.6536 179.049 88.8644 179.26C89.2859 179.699 89.9182 179.861 90.4857 179.699Z" fill="#F7941E"/>
<path d="M60.7141 165.193C60.6685 165.069 60.638 164.96 60.6076 164.836C59.9987 162.508 61.3534 160.117 63.6365 159.496C65.1129 159.093 66.6958 159.527 67.7765 160.629C68.3092 161.173 68.6897 161.84 68.8876 162.585C69.4964 164.914 68.1418 167.304 65.8587 167.925C65.0063 168.158 64.1083 168.111 63.3016 167.816L48.0202 183.37C49.6183 186.553 51.7035 189.455 54.154 191.955L79.0245 166.59C78.9788 166.466 78.9484 166.357 78.9179 166.233C78.3091 163.905 79.6637 161.514 81.9468 160.893C83.4232 160.49 85.0062 160.924 86.0868 162.026C86.6195 162.57 87.0001 163.237 87.1979 163.982C87.8067 166.311 86.4521 168.701 84.169 169.322C83.3167 169.555 82.4187 169.508 81.612 169.214L56.8481 194.423C59.6182 196.689 62.7385 198.521 66.1326 199.809L86.1325 179.412C86.0868 179.288 86.0564 179.179 86.0259 179.055C85.4171 176.727 86.7717 174.336 89.0548 173.715C90.5312 173.312 92.1142 173.746 93.1948 174.848C93.7276 175.392 94.1081 176.059 94.3059 176.804C94.9148 179.133 93.5601 181.523 91.277 182.144C90.4247 182.377 89.5267 182.33 88.72 182.035L70.0595 201.02C72.5405 201.625 74.8997 201.936 77.7916 201.936C86.2999 201.936 92.4795 197.931 96.863 193.119C99.2678 190.48 101.155 187.375 102.373 184.053C103.59 180.732 104.154 177.177 104.017 173.669C103.895 170.16 103.103 166.714 101.688 163.579C100.272 160.443 98.2633 157.602 95.8128 155.289C93.3623 152.961 90.4856 151.16 87.3958 149.996C85.8585 149.406 84.2603 148.987 82.647 148.723C81.8403 148.599 81.0336 148.506 80.2117 148.459C80.1965 148.459 80.1812 148.459 80.166 148.459V151.471L71.0945 145.386L80.166 138.4V141.164C80.4095 141.195 80.6531 141.21 80.8966 141.241C81.9316 141.381 82.9666 141.567 83.9864 141.8C86.0259 142.281 88.0046 142.949 89.892 143.818C93.6819 145.557 97.0913 148.04 99.8919 151.083C102.692 154.125 104.899 157.711 106.33 161.576C107.776 165.441 108.431 169.571 108.309 173.638C108.187 177.705 107.274 181.741 105.645 185.419C104.899 187.111 104.001 188.726 102.966 190.247C108.096 184.255 111.216 176.401 111.216 167.816C111.231 148.987 96.2694 133.728 77.7916 133.728C59.3138 133.728 44.352 148.987 44.352 167.832C44.352 172.023 45.0978 176.044 46.4524 179.754L60.7141 165.193Z" fill="#F7941E"/>
<path d="M83.4298 166.931C84.3215 166.687 84.8565 165.762 84.6133 164.869C84.5322 164.577 84.3863 164.334 84.1755 164.123C83.754 163.701 83.1217 163.539 82.5543 163.685C81.6626 163.928 81.1275 164.853 81.3707 165.746C81.4518 166.038 81.5977 166.281 81.8085 166.492C82.23 166.931 82.8461 167.093 83.4298 166.931Z" fill="#F7941E"/>
<path d="M65.2857 165.253C66.1774 165.009 66.7124 164.083 66.4692 163.19C66.3881 162.898 66.2422 162.654 66.0314 162.443C65.6099 162.021 64.9776 161.859 64.4102 162.005C63.5185 162.248 62.9834 163.174 63.2266 164.067C63.3077 164.36 63.4536 164.603 63.6644 164.814C64.0859 165.236 64.7182 165.415 65.2857 165.253Z" fill="#F7941E"/>
<path d="M122.618 169.481C121.473 168.964 120.574 168.23 119.919 167.281C119.265 166.331 118.938 165.223 118.938 163.956H122.679C122.761 164.906 123.124 165.687 123.768 166.299C124.412 166.911 125.317 167.217 126.482 167.217C127.689 167.217 128.629 166.917 129.304 166.315C129.979 165.713 130.316 164.938 130.316 163.988C130.316 163.249 130.107 162.647 129.687 162.183C129.268 161.719 128.747 161.36 128.123 161.106C127.5 160.853 126.636 160.579 125.532 160.283C124.141 159.903 123.012 159.518 122.143 159.128C121.274 158.737 120.533 158.13 119.919 157.307C119.306 156.484 118.999 155.386 118.999 154.014C118.999 152.748 119.306 151.639 119.919 150.69C120.533 149.74 121.391 149.011 122.495 148.505C123.6 147.998 124.877 147.745 126.329 147.745C128.394 147.745 130.086 148.278 131.405 149.344C132.724 150.41 133.455 151.872 133.598 153.729H129.733C129.672 152.927 129.304 152.241 128.629 151.671C127.955 151.101 127.065 150.816 125.961 150.816C124.959 150.816 124.141 151.08 123.508 151.608C122.874 152.135 122.557 152.895 122.557 153.887C122.557 154.563 122.756 155.117 123.155 155.55C123.554 155.982 124.06 156.325 124.673 156.579C125.286 156.832 126.125 157.106 127.188 157.402C128.599 157.803 129.749 158.204 130.638 158.605C131.528 159.006 132.284 159.624 132.908 160.457C133.531 161.291 133.843 162.405 133.843 163.798C133.843 164.917 133.552 165.972 132.969 166.964C132.386 167.956 131.538 168.753 130.423 169.355C129.309 169.956 127.995 170.257 126.482 170.257C125.051 170.257 123.763 169.998 122.618 169.481ZM142.231 168.816C140.565 167.856 139.246 166.515 138.275 164.795C137.304 163.075 136.818 161.138 136.818 158.985C136.818 156.832 137.304 154.901 138.275 153.191C139.246 151.481 140.565 150.146 142.231 149.186C143.897 148.225 145.722 147.745 147.705 147.745C149.709 147.745 151.544 148.225 153.211 149.186C154.877 150.146 156.191 151.481 157.152 153.191C158.113 154.901 158.593 156.832 158.593 158.985C158.593 161.138 158.113 163.075 157.152 164.795C156.191 166.515 154.877 167.856 153.211 168.816C151.544 169.777 149.709 170.257 147.705 170.257C145.722 170.257 143.897 169.777 142.231 168.816ZM151.478 166.125C152.582 165.46 153.446 164.51 154.069 163.275C154.693 162.041 155.005 160.61 155.005 158.985C155.005 157.36 154.693 155.935 154.069 154.711C153.446 153.486 152.582 152.547 151.478 151.893C150.374 151.238 149.116 150.911 147.705 150.911C146.295 150.911 145.037 151.238 143.933 151.893C142.829 152.547 141.965 153.486 141.342 154.711C140.718 155.935 140.406 157.36 140.406 158.985C140.406 160.61 140.718 162.041 141.342 163.275C141.965 164.51 142.829 165.46 143.933 166.125C145.037 166.79 146.295 167.122 147.705 167.122C149.116 167.122 150.374 166.79 151.478 166.125ZM184.478 148.03V170.035H180.981V154.964L174.48 170.035H172.057L165.524 154.964V170.035H162.028V148.03H165.8L173.284 165.286L180.736 148.03H184.478ZM200.824 170.035L192.574 160.188V170.035H189.078V148.03H192.574V158.067L200.855 148.03H205.241L195.979 159.048L205.394 170.035H200.824ZM212.739 168.816C211.073 167.856 209.754 166.515 208.783 164.795C207.812 163.075 207.326 161.138 207.326 158.985C207.326 156.832 207.812 154.901 208.783 153.191C209.754 151.481 211.073 150.146 212.739 149.186C214.406 148.225 216.23 147.745 218.214 147.745C220.217 147.745 222.052 148.225 223.719 149.186C225.385 150.146 226.699 151.481 227.66 153.191C228.621 154.901 229.101 156.832 229.101 158.985C229.101 161.138 228.621 163.075 227.66 164.795C226.699 166.515 225.385 167.856 223.719 168.816C222.052 169.777 220.217 170.257 218.214 170.257C216.23 170.257 214.406 169.777 212.739 168.816ZM221.986 166.125C223.09 165.46 223.954 164.51 224.578 163.275C225.201 162.041 225.513 160.61 225.513 158.985C225.513 157.36 225.201 155.935 224.578 154.711C223.954 153.486 223.09 152.547 221.986 151.893C220.882 151.238 219.625 150.911 218.214 150.911C216.803 150.911 215.546 151.238 214.441 151.893C213.337 152.547 212.474 153.486 211.85 154.711C211.226 155.935 210.914 157.36 210.914 158.985C210.914 160.61 211.226 162.041 211.85 163.275C212.474 164.51 213.337 165.46 214.441 166.125C215.546 166.79 216.803 167.122 218.214 167.122C219.625 167.122 220.882 166.79 221.986 166.125ZM245.463 149.376C247.17 150.273 248.489 151.56 249.42 153.238C250.35 154.916 250.815 156.874 250.815 159.112C250.815 161.349 250.35 163.291 249.42 164.938C248.489 166.584 247.17 167.845 245.463 168.721C243.756 169.597 241.768 170.035 239.498 170.035H232.536V148.03H239.498C241.768 148.03 243.756 148.478 245.463 149.376ZM245.233 165.001C246.562 163.608 247.227 161.645 247.227 159.112C247.227 156.558 246.562 154.563 245.233 153.128C243.904 151.692 241.993 150.974 239.498 150.974H236.032V167.091H239.498C241.993 167.091 243.904 166.394 245.233 165.001ZM257.777 150.943V157.402H265.137V160.347H257.777V167.091H266.058V170.035H254.281V147.998H266.058V150.943H257.777ZM281.423 170.035L276.516 161.233H273.847V170.035H270.351V148.03H277.712C279.347 148.03 280.733 148.325 281.867 148.916C283.002 149.507 283.851 150.299 284.413 151.291C284.975 152.283 285.256 153.391 285.256 154.616C285.256 156.051 284.853 157.354 284.045 158.526C283.237 159.698 281.995 160.494 280.319 160.916L285.594 170.035H281.423ZM273.847 158.352H277.712C279.02 158.352 280.007 158.014 280.671 157.339C281.336 156.663 281.668 155.756 281.668 154.616C281.668 153.476 281.341 152.584 280.687 151.94C280.032 151.296 279.041 150.974 277.712 150.974H273.847V158.352Z" fill="#F7941E"/>
<path d="M120.001 180.032V185.183C120.001 185.908 120.178 186.445 120.532 186.795C120.886 187.146 121.379 187.321 122.01 187.321C122.633 187.321 123.121 187.146 123.476 186.795C123.83 186.445 124.007 185.908 124.007 185.183V180.032H125.07V185.172C125.07 185.849 124.934 186.419 124.661 186.883C124.389 187.346 124.021 187.691 123.557 187.916C123.094 188.142 122.574 188.255 121.998 188.255C121.422 188.255 120.902 188.142 120.439 187.916C119.975 187.691 119.609 187.346 119.341 186.883C119.072 186.419 118.938 185.849 118.938 185.172V180.032H120.001ZM133.83 188.173H132.767L128.492 181.691V188.173H127.429V180.021H128.492L132.767 186.492V180.021H133.83V188.173ZM137.287 187.309H140.137V188.173H136.224V180.032H137.287V187.309ZM142.917 180.897V183.618H145.884V184.494H142.917V187.297H146.234V188.173H141.854V180.021H146.234V180.897H142.917ZM153.242 186.363H149.691L149.037 188.173H147.916L150.859 180.079H152.086L155.017 188.173H153.896L153.242 186.363ZM152.938 185.499L151.467 181.387L149.995 185.499H152.938ZM158.025 187.969C157.601 187.778 157.268 187.514 157.026 187.175C156.785 186.836 156.66 186.445 156.653 186.001H157.786C157.824 186.383 157.982 186.704 158.259 186.965C158.535 187.225 158.938 187.356 159.467 187.356C159.974 187.356 160.373 187.229 160.665 186.976C160.957 186.723 161.103 186.398 161.103 186.001C161.103 185.689 161.017 185.436 160.846 185.242C160.674 185.047 160.46 184.899 160.203 184.798C159.946 184.697 159.6 184.588 159.164 184.471C158.626 184.331 158.196 184.191 157.873 184.05C157.55 183.91 157.274 183.69 157.044 183.39C156.814 183.091 156.699 182.688 156.699 182.182C156.699 181.738 156.812 181.345 157.038 181.002C157.264 180.659 157.581 180.395 157.99 180.208C158.399 180.021 158.868 179.927 159.397 179.927C160.16 179.927 160.785 180.118 161.272 180.5C161.759 180.881 162.033 181.387 162.095 182.018H160.927C160.889 181.707 160.725 181.432 160.437 181.195C160.149 180.957 159.767 180.838 159.292 180.838C158.848 180.838 158.486 180.953 158.206 181.183C157.926 181.413 157.786 181.734 157.786 182.147C157.786 182.442 157.869 182.684 158.037 182.871C158.204 183.058 158.41 183.2 158.656 183.297C158.901 183.394 159.246 183.505 159.689 183.63C160.227 183.778 160.659 183.924 160.986 184.068C161.313 184.212 161.593 184.434 161.827 184.734C162.06 185.033 162.177 185.44 162.177 185.954C162.177 186.351 162.072 186.725 161.862 187.076C161.652 187.426 161.34 187.71 160.927 187.928C160.515 188.146 160.028 188.255 159.467 188.255C158.93 188.255 158.449 188.16 158.025 187.969ZM170.598 180.032V188.173H169.536V184.483H165.389V188.173H164.326V180.032H165.389V183.607H169.536V180.032H170.598ZM172.818 188.033C172.678 187.893 172.607 187.722 172.607 187.519C172.607 187.317 172.678 187.146 172.818 187.005C172.958 186.865 173.129 186.795 173.332 186.795C173.526 186.795 173.692 186.865 173.828 187.005C173.964 187.146 174.032 187.317 174.032 187.519C174.032 187.722 173.964 187.893 173.828 188.033C173.692 188.173 173.526 188.244 173.332 188.244C173.129 188.244 172.958 188.173 172.818 188.033ZM180.871 180.529C181.521 180.86 182.02 181.333 182.366 181.948C182.713 182.563 182.886 183.287 182.886 184.12C182.886 184.954 182.713 185.676 182.366 186.287C182.02 186.898 181.521 187.366 180.871 187.689C180.221 188.012 179.452 188.173 178.564 188.173H176.03V180.032H178.564C179.452 180.032 180.221 180.198 180.871 180.529ZM180.97 186.462C181.523 185.906 181.8 185.125 181.8 184.12C181.8 183.108 181.521 182.318 180.964 181.749C180.408 181.181 179.608 180.897 178.564 180.897H177.093V187.297H178.564C179.615 187.297 180.417 187.019 180.97 186.462ZM185.934 180.032V188.173H184.871V180.032H185.934ZM189.468 187.969C189.043 187.778 188.71 187.514 188.469 187.175C188.227 186.836 188.103 186.445 188.095 186.001H189.228C189.267 186.383 189.425 186.704 189.701 186.965C189.978 187.225 190.381 187.356 190.91 187.356C191.416 187.356 191.815 187.229 192.107 186.976C192.399 186.723 192.545 186.398 192.545 186.001C192.545 185.689 192.46 185.436 192.288 185.242C192.117 185.047 191.903 184.899 191.646 184.798C191.389 184.697 191.042 184.588 190.606 184.471C190.069 184.331 189.639 184.191 189.316 184.05C188.993 183.91 188.716 183.69 188.486 183.39C188.257 183.091 188.142 182.688 188.142 182.182C188.142 181.738 188.255 181.345 188.481 181.002C188.706 180.659 189.024 180.395 189.432 180.208C189.841 180.021 190.31 179.927 190.84 179.927C191.603 179.927 192.228 180.118 192.715 180.5C193.201 180.881 193.476 181.387 193.538 182.018H192.37C192.331 181.707 192.168 181.432 191.879 181.195C191.591 180.957 191.21 180.838 190.735 180.838C190.291 180.838 189.929 180.953 189.649 181.183C189.368 181.413 189.228 181.734 189.228 182.147C189.228 182.442 189.312 182.684 189.479 182.871C189.647 183.058 189.853 183.2 190.098 183.297C190.344 183.394 190.688 183.505 191.132 183.63C191.669 183.778 192.101 183.924 192.428 184.068C192.755 184.212 193.036 184.434 193.269 184.734C193.503 185.033 193.62 185.44 193.62 185.954C193.62 186.351 193.515 186.725 193.304 187.076C193.094 187.426 192.783 187.71 192.37 187.928C191.957 188.146 191.471 188.255 190.91 188.255C190.373 188.255 189.892 188.16 189.468 187.969ZM195.909 181.954C196.267 181.319 196.756 180.823 197.375 180.465C197.994 180.106 198.681 179.927 199.436 179.927C200.324 179.927 201.099 180.141 201.761 180.57C202.423 180.998 202.905 181.605 203.209 182.392H201.936C201.71 181.901 201.385 181.524 200.961 181.259C200.536 180.994 200.028 180.862 199.436 180.862C198.868 180.862 198.358 180.994 197.906 181.259C197.455 181.524 197.1 181.899 196.843 182.386C196.586 182.873 196.458 183.443 196.458 184.097C196.458 184.743 196.586 185.31 196.843 185.797C197.1 186.283 197.455 186.659 197.906 186.924C198.358 187.188 198.868 187.321 199.436 187.321C200.028 187.321 200.536 187.19 200.961 186.93C201.385 186.669 201.71 186.293 201.936 185.802H203.209C202.905 186.581 202.423 187.183 201.761 187.607C201.099 188.031 200.324 188.244 199.436 188.244C198.681 188.244 197.994 188.066 197.375 187.712C196.756 187.358 196.267 186.865 195.909 186.235C195.551 185.604 195.372 184.891 195.372 184.097C195.372 183.303 195.551 182.588 195.909 181.954ZM206.993 187.724C206.37 187.369 205.878 186.875 205.516 186.24C205.154 185.606 204.973 184.891 204.973 184.097C204.973 183.303 205.154 182.588 205.516 181.954C205.878 181.319 206.37 180.825 206.993 180.47C207.616 180.116 208.305 179.939 209.061 179.939C209.824 179.939 210.517 180.116 211.14 180.47C211.763 180.825 212.253 181.317 212.611 181.948C212.97 182.579 213.149 183.295 213.149 184.097C213.149 184.899 212.97 185.616 212.611 186.246C212.253 186.877 211.763 187.369 211.14 187.724C210.517 188.078 209.824 188.255 209.061 188.255C208.305 188.255 207.616 188.078 206.993 187.724ZM210.597 186.935C211.052 186.671 211.41 186.293 211.671 185.802C211.932 185.312 212.062 184.743 212.062 184.097C212.062 183.443 211.932 182.873 211.671 182.386C211.41 181.899 211.054 181.524 210.602 181.259C210.151 180.994 209.637 180.862 209.061 180.862C208.485 180.862 207.971 180.994 207.519 181.259C207.067 181.524 206.711 181.899 206.45 182.386C206.189 182.873 206.059 183.443 206.059 184.097C206.059 184.743 206.189 185.312 206.45 185.802C206.711 186.293 207.069 186.671 207.525 186.935C207.98 187.2 208.492 187.332 209.061 187.332C209.629 187.332 210.141 187.2 210.597 186.935ZM221.862 180.032L218.79 188.173H217.564L214.492 180.032H215.625L218.183 187.052L220.741 180.032H221.862ZM224.677 180.897V183.618H227.644V184.494H224.677V187.297H227.994V188.173H223.614V180.021H227.994V180.897H224.677ZM234.476 188.173L232.538 184.845H231.253V188.173H230.19V180.032H232.818C233.433 180.032 233.953 180.138 234.377 180.348C234.801 180.558 235.119 180.842 235.329 181.2C235.539 181.559 235.644 181.967 235.644 182.427C235.644 182.988 235.483 183.482 235.16 183.91C234.837 184.339 234.352 184.623 233.706 184.763L235.75 188.173H234.476ZM231.253 183.992H232.818C233.394 183.992 233.826 183.85 234.114 183.566C234.402 183.281 234.546 182.902 234.546 182.427C234.546 181.944 234.404 181.57 234.12 181.306C233.836 181.041 233.402 180.908 232.818 180.908H231.253V183.992ZM237.7 188.033C237.56 187.893 237.49 187.722 237.49 187.519C237.49 187.317 237.56 187.146 237.7 187.005C237.84 186.865 238.012 186.795 238.214 186.795C238.409 186.795 238.574 186.865 238.71 187.005C238.847 187.146 238.915 187.317 238.915 187.519C238.915 187.722 238.847 187.893 238.71 188.033C238.574 188.173 238.409 188.244 238.214 188.244C238.012 188.244 237.84 188.173 237.7 188.033ZM247.313 188.173H246.25L241.975 181.691V188.173H240.912V180.021H241.975L246.25 186.492V180.021H247.313V188.173ZM254.519 186.363H250.969L250.314 188.173H249.193L252.137 180.079H253.363L256.295 188.173H255.173L254.519 186.363ZM254.216 185.499L252.744 181.387L251.272 185.499H254.216ZM263.174 180.032V180.897H260.955V188.173H259.892V180.897H257.661V180.032H263.174ZM266.106 180.032V185.183C266.106 185.908 266.283 186.445 266.637 186.795C266.992 187.146 267.484 187.321 268.115 187.321C268.738 187.321 269.226 187.146 269.581 186.795C269.935 186.445 270.112 185.908 270.112 185.183V180.032H271.175V185.172C271.175 185.849 271.039 186.419 270.766 186.883C270.494 187.346 270.126 187.691 269.662 187.916C269.199 188.142 268.679 188.255 268.103 188.255C267.527 188.255 267.007 188.142 266.544 187.916C266.081 187.691 265.715 187.346 265.446 186.883C265.177 186.419 265.043 185.849 265.043 185.172V180.032H266.106ZM277.821 188.173L275.882 184.845H274.597V188.173H273.534V180.032H276.162C276.777 180.032 277.297 180.138 277.722 180.348C278.146 180.558 278.463 180.842 278.673 181.2C278.884 181.559 278.989 181.967 278.989 182.427C278.989 182.988 278.827 183.482 278.504 183.91C278.181 184.339 277.696 184.623 277.05 184.763L279.094 188.173H277.821ZM274.597 183.992H276.162C276.739 183.992 277.171 183.85 277.459 183.566C277.747 183.281 277.891 182.902 277.891 182.427C277.891 181.944 277.749 181.57 277.465 181.306C277.18 181.041 276.746 180.908 276.162 180.908H274.597V183.992ZM282.283 180.897V183.618H285.249V184.494H282.283V187.297H285.6V188.173H281.22V180.021H285.6V180.897H282.283Z" fill="#404041"/>
</svg>
